<?xml version="1.0" standalone="no"?><!DOCTYPE svg PUBLIC "-//W3C//DTD SVG 1.1//EN" "http://www.w3.org/Graphics/SVG/1.1/DTD/svg11.dtd"><svg class="icon" height="512" viewBox="0 0 1024 1024" version="1.1" xmlns="http://www.w3.org/2000/svg"><path d="M512 1024C229.233778 1024 0 794.766222 0 512S229.233778 0 512 0s512 229.233778 512 512-229.233778 512-512 512z m0-938.894222C276.224 85.105778 85.105778 276.224 85.105778 512c0 235.776 191.118222 426.894222 426.894222 426.894222 235.776 0 426.894222-191.118222 426.894222-426.894222 0-235.776-191.118222-426.894222-426.894222-426.894222z m10.666667 682.752c-29.582222 0-53.532444-25.344-53.532445-56.604445 0-31.232 23.950222-56.576 53.532445-56.576 29.553778 0 53.532444 25.344 53.532444 56.576 0 31.260444-23.978667 56.604444-53.532444 56.604445z m0-186.254222c-29.582222 0-53.532444-25.344-53.532445-56.576v-190.976c0-31.232 23.950222-56.576 53.532445-56.576 29.553778 0 53.532444 25.344 53.532444 56.576v190.976c0 31.232-23.978667 56.576-53.532444 56.576z" /></svg>